<svg width="1200" height="630" viewBox="0 0 1200 630" fill="none" xmlns="http://www.w3.org/2000/svg">
  <defs>
    <linearGradient id="bg" x1="0" y1="0" x2="1200" y2="630" gradientUnits="userSpaceOnUse">
      <stop stop-color="#08111D" />
      <stop offset="0.52" stop-color="#0F2238" />
      <stop offset="1" stop-color="#173245" />
    </linearGradient>
    <linearGradient id="panel" x1="96" y1="56" x2="1104" y2="574" gradientUnits="userSpaceOnUse">
      <stop stop-color="#09141F" />
      <stop offset="1" stop-color="#111F2A" />
    </linearGradient>
    <radialGradient id="glowA" cx="0" cy="0" r="1" gradientUnits="userSpaceOnUse" gradientTransform="translate(1016 96) rotate(126) scale(524 404)">
      <stop stop-color="rgba(59, 130, 246, 0.18)" />
      <stop offset="1" stop-color="rgba(15, 23, 42, 0)" />
    </radialGradient>
    <radialGradient id="glowB" cx="0" cy="0" r="1" gradientUnits="userSpaceOnUse" gradientTransform="translate(164 546) rotate(5) scale(388 262)">
      <stop stop-color="rgba(250, 204, 21, 0.12)" />
      <stop offset="1" stop-color="rgba(15, 23, 42, 0)" />
    </radialGradient>
    <linearGradient id="accentLine" x1="140" y1="0" x2="418" y2="0" gradientUnits="userSpaceOnUse">
      <stop stop-color="#3B82F6" />
      <stop offset="1" stop-color="#F59E0B" />
    </linearGradient>
  </defs>

  <rect width="1200" height="630" fill="url(#bg)" />
  <rect width="1200" height="630" fill="url(#glowA)" />
  <rect width="1200" height="630" fill="url(#glowB)" />

  <g opacity="0.11" stroke="#94A3B8" stroke-width="1">
    <path d="M0 48 H1200" /><path d="M0 108 H1200" /><path d="M0 168 H1200" /><path d="M0 228 H1200" />
    <path d="M0 288 H1200" /><path d="M0 348 H1200" /><path d="M0 408 H1200" /><path d="M0 468 H1200" /><path d="M0 528 H1200" />
    <path d="M52 0 V630" /><path d="M112 0 V630" /><path d="M172 0 V630" /><path d="M232 0 V630" /><path d="M292 0 V630" />
    <path d="M352 0 V630" /><path d="M412 0 V630" /><path d="M472 0 V630" /><path d="M532 0 V630" /><path d="M592 0 V630" />
    <path d="M652 0 V630" /><path d="M712 0 V630" /><path d="M772 0 V630" /><path d="M832 0 V630" /><path d="M892 0 V630" />
    <path d="M952 0 V630" /><path d="M1012 0 V630" /><path d="M1072 0 V630" /><path d="M1132 0 V630" />
  </g>

  <circle cx="150" cy="166" r="4" fill="#3B82F6" opacity="0.42" />
  <circle cx="316" cy="112" r="2" fill="#BFDBFE" opacity="0.56" />
  <circle cx="520" cy="406" r="3" fill="#F59E0B" opacity="0.46" />
  <circle cx="878" cy="124" r="4" fill="#3B82F6" opacity="0.38" />
  <circle cx="1036" cy="304" r="3" fill="#F59E0B" opacity="0.34" />
  <path d="M98 196 L176 226 L286 214" stroke="rgba(148, 163, 184, 0.10)" stroke-width="2" fill="none" />
  <path d="M152 406 L244 372 L330 414" stroke="rgba(148, 163, 184, 0.10)" stroke-width="2" fill="none" />
  <path d="M214 260 L304 320 L410 294" stroke="rgba(148, 163, 184, 0.10)" stroke-width="2" fill="none" />

  <rect x="96" y="56" width="1008" height="518" rx="44" fill="url(#panel)" stroke="rgba(148, 163, 184, 0.12)" />
  <rect x="114" y="74" width="972" height="482" rx="36" fill="none" stroke="rgba(148, 163, 184, 0.08)" />
  <rect x="140" y="92" width="4" height="446" rx="2" fill="url(#accentLine)" opacity="0.88" />

  <rect x="168" y="126" width="158" height="42" rx="21" fill="rgba(15, 23, 42, 0.72)" stroke="rgba(148, 163, 184, 0.14)" />
  <text x="190" y="153" fill="#E2E8F0" font-size="16" font-family="Inter, Arial, sans-serif" font-weight="760" letter-spacing="1.4">GDPR + AI</text>

  <text x="168" y="196" fill="#F8FAFC" font-size="38" font-family="Inter, Arial, sans-serif" font-weight="820" letter-spacing="-1.0">
    <tspan x="168" dy="0">GDPR Compliance</tspan>
    <tspan x="168" dy="43">for AI Systems:</tspan>
    <tspan x="168" dy="43">Infrastructure</tspan>
    <tspan x="168" dy="43">Requirements You</tspan>
    <tspan x="168" dy="43">Can't Ignore</tspan>
  </text>

  <rect x="168" y="446" width="164" height="4" rx="2" fill="#3B82F6" opacity="0.92" />
  <rect x="344" y="446" width="72" height="4" rx="2" fill="#FCD34D" opacity="0.74" />

  <g transform="translate(168, 0)">
    <rect x="0" y="474" width="90" height="42" rx="21" fill="rgba(10, 17, 31, 0.70)" stroke="rgba(148, 163, 184, 0.18)" />
    <circle cx="22" cy="495" r="5" fill="#3B82F6" />
    <text x="36" y="501" fill="#E2E8F0" font-size="16" font-family="Inter, Arial, sans-serif" font-weight="650">GDPR</text>
  </g>

  <g transform="translate(272, 0)">
    <rect x="0" y="474" width="146" height="42" rx="21" fill="rgba(10, 17, 31, 0.70)" stroke="rgba(148, 163, 184, 0.18)" />
    <circle cx="22" cy="495" r="5" fill="#3B82F6" />
    <text x="36" y="501" fill="#E2E8F0" font-size="16" font-family="Inter, Arial, sans-serif" font-weight="650">Data Residency</text>
  </g>

  <g transform="translate(432, 0)">
    <rect x="0" y="474" width="128" height="42" rx="21" fill="rgba(10, 17, 31, 0.70)" stroke="rgba(148, 163, 184, 0.18)" />
    <circle cx="22" cy="495" r="5" fill="#3B82F6" />
    <text x="36" y="501" fill="#E2E8F0" font-size="16" font-family="Inter, Arial, sans-serif" font-weight="650">Deletion</text>
  </g>

  <g transform="translate(792 148) scale(0.94) translate(-792 -148)">
    <rect x="706" y="136" width="352" height="326" rx="36" fill="rgba(9, 14, 26, 0.54)" stroke="rgba(148, 163, 184, 0.14)" />
    <rect x="724" y="154" width="316" height="290" rx="28" fill="rgba(10, 17, 31, 0.76)" stroke="rgba(148, 163, 184, 0.08)" />
    <rect x="748" y="176" width="98" height="10" rx="5" fill="#3B82F6" opacity="0.88" />
    <rect x="858" y="176" width="48" height="10" rx="5" fill="#F59E0B" opacity="0.68" />
    <rect x="918" y="176" width="78" height="10" rx="5" fill="rgba(148, 163, 184, 0.20)" />
    <rect x="742" y="388" width="280" height="34" rx="17" fill="rgba(15, 23, 42, 0.72)" stroke="rgba(148, 163, 184, 0.12)" />
    <text x="766" y="410" fill="#E2E8F0" font-size="15" font-family="Inter, Arial, sans-serif" font-weight="680">Regional Processing Controls</text>

    <rect x="758" y="220" width="96" height="122" rx="24" fill="rgba(8, 14, 24, 0.92)" stroke="rgba(148, 163, 184, 0.16)" />
    <circle cx="806" cy="258" r="22" fill="rgba(12, 24, 34, 0.94)" stroke="#3B82F6" stroke-width="3" />
    <path d="M794 258 H818" stroke="#BFDBFE" stroke-width="3" stroke-linecap="round" />
    <path d="M806 246 V270" stroke="#BFDBFE" stroke-width="3" stroke-linecap="round" />
    <text x="806" y="362" text-anchor="middle" fill="#CBD5E1" font-size="13" font-family="Inter, Arial, sans-serif" font-weight="650">EU Cluster</text>

    <rect x="892" y="220" width="110" height="122" rx="24" fill="rgba(8, 14, 24, 0.92)" stroke="rgba(148, 163, 184, 0.16)" />
    <path d="M947 232 L978 242 L978 286 C978 312 964 332 947 344 C930 332 916 312 916 286 L916 242 Z" fill="rgba(12, 24, 34, 0.94)" stroke="#F59E0B" stroke-width="4" />
    <path d="M936 286 L944 294 L958 278" stroke="#FDE68A" stroke-width="4" stroke-linecap="round" stroke-linejoin="round" />
    <text x="947" y="362" text-anchor="middle" fill="#CBD5E1" font-size="13" font-family="Inter, Arial, sans-serif" font-weight="650">Consent + Audit</text>

    <path d="M854 280 H892" stroke="#3B82F6" stroke-width="4" stroke-linecap="round" />
    <path d="M878 266 C892 244 914 232 936 232" stroke="rgba(148, 163, 184, 0.22)" stroke-width="3" fill="none" stroke-linecap="round" />
  </g>

  <text x="1002" y="522" text-anchor="end" fill="rgba(226, 232, 240, 0.72)" font-size="15" font-family="Inter, Arial, sans-serif" font-weight="730" letter-spacing="1.8">RESILIOTECH</text>
  <text x="1002" y="542" text-anchor="end" fill="rgba(148, 163, 184, 0.66)" font-size="13" font-family="Inter, Arial, sans-serif" font-weight="500">AI Infrastructure • Reliability • MLOps</text>

  <g transform="translate(1018, 506)">
    <rect width="36" height="36" rx="10" fill="#00D4FF" />
    <rect x="1" y="1" width="34" height="34" rx="9" fill="none" stroke="rgba(255, 255, 255, 0.20)" />
    <text x="18" y="24" text-anchor="middle" fill="#FFFFFF" font-size="21" font-family="Inter, Arial, sans-serif" font-weight="800">R</text>
  </g>
</svg>
