<svg width="64" height="64" viewBox="0 0 64 64" fill="none" xmlns="http://www.w3.org/2000/svg">
  <rect width="64" height="64" rx="8" fill="#181717"/>
  <path d="M32 12c-11.046 0-20 8.954-20 20 0 8.844 5.736 16.338 13.696 18.987 1-.146 1.304-.437 1.304-.97v-3.386c-5.568 1.21-6.738-2.683-6.738-2.683-.908-2.307-2.217-2.92-2.217-2.92-1.812-1.24.137-1.216.137-1.216 2.005.141 3.06 2.058 3.06 2.058 1.779 3.047 4.667 2.167 5.804 1.657.18-1.289.696-2.167 1.267-2.666-4.432-.504-9.093-2.216-9.093-9.863 0-2.179.777-3.959 2.052-5.354-.206-.504-.89-2.535.195-5.283 0 0 1.673-.535 5.48 2.043a19.077 19.077 0 015.002-.673c1.696.008 3.408.23 5.002.673 3.805-2.578 5.476-2.043 5.476-2.043 1.087 2.748.403 4.779.197 5.283 1.277 1.395 2.05 3.175 2.05 5.354 0 7.665-4.668 9.354-9.113 9.85.717.618 1.356 1.834 1.356 3.696v5.48c0 .538.298.825 1.315.684C46.262 48.333 52 40.839 52 32c0-11.046-8.954-20-20-20z" fill="white"/>
</svg>