<svg width="64" height="64" viewBox="0 0 64 64" fill="none" xmlns="http://www.w3.org/2000/svg">
  <rect width="64" height="64" rx="8" fill="#F46800"/>
  <g transform="translate(8, 8)">
    <!-- Grafana logo -->
    <path d="M24 4L8 12v24c0 8 16 12 16 12s16-4 16-12V12L24 4z" fill="white"/>
    <path d="M24 8L12 14v20c0 6 12 10 12 10s12-4 12-10V14L24 8z" fill="#F46800"/>
    
    <!-- Graph lines -->
    <polyline points="16,20 20,16 24,20 28,14 32,18 36,16" fill="none" stroke="white" stroke-width="2"/>
    <polyline points="16,28 20,24 24,28 28,22 32,26 36,24" fill="none" stroke="white" stroke-width="2"/>
    
    <!-- Data points -->
    <circle cx="20" cy="16" r="1.5" fill="white"/>
    <circle cx="24" cy="20" r="1.5" fill="white"/>
    <circle cx="28" cy="14" r="1.5" fill="white"/>
    <circle cx="32" cy="18" r="1.5" fill="white"/>
  </g>
</svg>