<svg width="64" height="64" viewBox="0 0 64 64" fill="none" xmlns="http://www.w3.org/2000/svg">
  <rect width="64" height="64" rx="8" fill="#47A248"/>
  <g transform="translate(16, 8)">
    <!-- MongoDB leaf -->
    <path d="M16 4C10 4 6 12 6 20c0 8 4 16 8 20 1 1 2 2 2 4v4h0c0-2 1-3 2-4 4-4 8-12 8-20 0-8-4-16-10-16z" fill="white"/>
    <path d="M16 8C12 8 10 14 10 20c0 6 2 12 4 16 1 1 1 2 1 3h2c0-1 0-2 1-3 2-4 4-10 4-16 0-6-2-12-6-12z" fill="#47A248"/>
    
    <!-- MongoDB stem -->
    <rect x="15" y="44" width="2" height="4" fill="white"/>
  </g>
</svg>