<svg width="64" height="64" viewBox="0 0 64 64" fill="none" xmlns="http://www.w3.org/2000/svg">
  <rect width="64" height="64" rx="8" fill="#336791"/>
  <g transform="translate(8, 8)">
    <!-- PostgreSQL elephant -->
    <path d="M12 8C8 8 4 12 4 16v8c0 6 4 10 8 12 2 1 4 2 6 4 1 1 2 2 4 2s3-1 4-2c2-2 4-3 6-4 4-2 8-6 8-12v-8c0-4-4-8-8-8H12z" fill="white"/>
    <path d="M14 12C12 12 10 14 10 16v6c0 4 2 6 4 8 1 1 2 2 3 3 1 0 2-1 3-3 2-2 4-4 4-8v-6c0-2-2-4-4-4h-6z" fill="#336791"/>
    
    <!-- Elephant features -->
    <circle cx="16" cy="18" r="1.5" fill="white"/>
    <circle cx="22" cy="18" r="1.5" fill="white"/>
    <path d="M14 22c2 1 4 1 6 0" stroke="white" stroke-width="1.5" fill="none"/>
    
    <!-- Trunk -->
    <path d="M24 24c2 0 4 2 4 4s-2 4-4 4" stroke="white" stroke-width="2" fill="none"/>
  </g>
</svg>