<svg width="64" height="64" viewBox="0 0 64 64" fill="none" xmlns="http://www.w3.org/2000/svg">
  <rect width="64" height="64" rx="8" fill="#E6522C"/>
  <g transform="translate(8, 8)">
    <!-- Prometheus flame -->
    <path d="M24 4c-6 0-12 4-16 10-2 3-2 7 0 10 2 4 6 6 10 8 2 1 4 3 4 5v3h4v-3c0-4-2-7-5-9-3-2-6-3-7-6-1-2 0-4 2-5 3-2 7-1 9 2l3-2c-3-5-8-8-14-8z" fill="white"/>
    <path d="M22 36h4v4h-4z" fill="white"/>
    <path d="M20 42h8v4h-8z" fill="white"/>
    
    <!-- Flame details -->
    <circle cx="20" cy="20" r="2" fill="#FFD700"/>
    <circle cx="28" cy="24" r="1.5" fill="#FFD700"/>
    <circle cx="16" cy="26" r="1" fill="#FFD700"/>
  </g>
</svg>